# xmcd
#
# Track frame offsets:
#	182
#	19075
#	35475
#	51775
#	64225
#	80025
#	97600
#	107675
#	124200
#	143775
#	158275
#	170700
#
# Disc length: 2521 seconds
#
# Revision: 1
# Processed by: cddbd v1.4PL0 Copyright (c) Steve Scherf et al.
# Submitted via: audiograbber 1.81.01
#
DISCID=9609d70c
DTITLE=Midnight Breakfast - Somebody Is Knocking Upon My Door
DYEAR=1900
DGENRE=Blues
TTITLE0=Dust My Broom
TTITLE1=Cold Women With Warm Hearts
TTITLE2=Long Distance Call
TTITLE3=You'd Better Watch Your Step
TTITLE4=Somebody Is Knocking Upon My Door
TTITLE5=Boogie Chillun
TTITLE6=The Other Man In Me
TTITLE7=Still Crazy
TTITLE8=Wang Dang Doodle
TTITLE9=I'm Your Man
TTITLE10=Drunken Man
TTITLE11=Mannish Boy
EXTD=
EXTT0=
EXTT1=
EXTT2=
EXTT3=
EXTT4=
EXTT5=
EXTT6=
EXTT7=
EXTT8=
EXTT9=
EXTT10=
EXTT11=
PLAYORDER=
